<svg xmlns="http://www.w3.org/2000/svg" xmlns:xlink="http://www.w3.org/1999/xlink" viewBox="0 0 1366 757.65"><defs><style>.cls-1{fill:url(#linear-gradient);}</style><linearGradient id="linear-gradient" x1="1044.72" y1="173.87" x2="35.28" y2="744.86" gradientUnits="userSpaceOnUse"><stop offset="0" stop-color="#03fffc"/><stop offset="0.14" stop-color="#06f6f7"/><stop offset="0.38" stop-color="#0ddcea"/><stop offset="0.68" stop-color="#1ab3d4"/><stop offset="0.99" stop-color="#2980b9"/></linearGradient></defs><title>HeroBG</title><g id="Layer_2" data-name="Layer 2"><g id="Layer_1-2" data-name="Layer 1"><path class="cls-1" d="M265.29,732.14c5.82,2.9,11.85,6.12,18.35,6,5.79-.15,11.13-3,16.32-5.52,71.39-35.32,159.47-34.73,230.38,1.55,6.81,3.48,13.9,7.37,21.54,7.07,6.51-.27,12.45-3.55,18.23-6.55,71.37-36.9,160.35-37.54,232.25-1.68,5.31,2.65,10.78,5.55,16.71,5.64,6.3.09,12.14-3,17.78-5.79,70.71-35.11,157.84-35.09,228.54,0,5.65,2.8,11.51,5.89,17.81,5.75,5.74-.13,11-2.93,16.15-5.49a250.1,250.1,0,0,1,115-26.65c54.79.58,107.81,19,151.66,50.49V236s-12-92-355-92S683,0,683,0H0V757.65C74,703.7,174.42,686.85,265.29,732.14Z"/></g></g></svg>