<svg xmlns="http://www.w3.org/2000/svg" xmlns:xlink="http://www.w3.org/1999/xlink" viewBox="0 0 1366 748.36"><defs><style>.cls-1{fill:url(#linear-gradient);}</style><linearGradient id="linear-gradient" x1="1176.85" y1="102.68" x2="279.25" y2="596.15" gradientUnits="userSpaceOnUse"><stop offset="0.16" stop-color="#3498db"/><stop offset="0.3" stop-color="#35a1dd"/><stop offset="0.53" stop-color="#38bbe1"/><stop offset="0.83" stop-color="#3ce4e8"/><stop offset="1" stop-color="#3fffec"/></linearGradient></defs><title>Asset 1</title><g id="Layer_2" data-name="Layer 2"><g id="Hero"><path class="cls-1" d="M2.25,740.07C87,678.37,170,688.18,265,713.31c9.09,2.4,18.35,4.83,27.74,4.47,13.34-.51,25.72-6.53,38.14-11.41,58.55-23,126.32-21.53,183.8,4.07,11,4.89,22.14,10.74,34.14,10.39,10.39-.29,20-5.22,29.5-9.45,63-28,137.79-28.09,200.79-.14,10.62,4.72,21.46,10.31,33.08,10,10.93-.32,20.91-5.84,30.79-10.51a222.36,222.36,0,0,1,157.51-11.65c25.06,7.56,49.72,19.75,75.86,18.25,43.86-2.52,80-27,125.76-27A259.33,259.33,0,0,1,1366,748.36V247s-9-105-318-109S683,0,683,0H0V741.73Z"/></g></g></svg>